DBRep_DrawableShape

CASCADE Topology V1, (c) Matra-Datavision
Locations 0
Curve2ds 0
Curves 9
7 0 0  1 2 2  12.9859221925103 -2.35731708590155 0  -4.5492084113889604 5.6658322941844297 0 
 20.204472844551201 2 39.4879302957184 2
7 0 0  1 2 2  -4.5492084113889604 5.6658322941844297 0  -4.5492084113889604 5.6658322941844297 8.1996878876736599 
 0 2 8.1996878876736599 2
7 0 0  1 2 2  12.9859221925103 -2.35731708590155 8.1996878876736599  -4.5492084113889604 5.6658322941844297 8.1996878876736599 
 20.204472844551201 2 39.4879302957184 2
7 0 0  1 2 2  12.9859221925103 -2.35731708590155 0  12.9859221925103 -2.35731708590155 8.1996878876736599 
 0 2 8.1996878876736599 2
7 0 0  1 2 2  -4.5492084113889604 5.6658322941844297 0  -6.6997432967728301 -6.9065254972905104 0 
 39.4879302957184 2 52.2428893599457 2
7 0 0  1 2 2  -6.6997432967728301 -6.9065254972905104 0  12.9859221925103 -2.35731708590155 0 
 0 2 20.204472844551201 2
7 0 0  1 2 2  -2.48138640621216 -4.5905648514925002 0  6.5343175363586896 -1.44747540362376 0 
 0 2 9.5478756201257404 2
7 0 0  1 2 2  6.5343175363586896 -1.44747540362376 0  -2.3986735260050902 1.6956140442449701 0 
 9.5478756201257404 2 19.017687687826701 2
7 0 0  1 2 2  -2.3986735260050902 1.6956140442449701 0  -2.48138640621216 -4.5905648514925002 0 
 19.017687687826701 2 25.304410723699 2
Polygon3D 0
PolygonOnTriangulations 0
Surfaces 2
1 12.9859221925103 -2.35731708590155 0 0.41606384126931212 0.90933540566076321 0 0.90933540566076321 -0.41606384126931212 0 0 0 -1 
1 -8.8293189110321499 -8.9080774962133198 0 0 0 -1 -1 0 -0 0 1 0 
Triangulations 0

TShapes 24
Ve
1e-07
12.9859221925103 -2.35731708590155 0
0 0

0101101
*
Ve
1e-07
-4.54920841138896 5.66583229418443 0
0 0

0101101
*
Ed
 1e-07 1 1 0
1  1 0 20.2044728445512 39.4879302957184
4 C0 1 0 2 0
0

0101000
+24 0 -23 0 *
Ve
1e-07
-4.54920841138896 5.66583229418443 8.19968788767366
0 0

0101101
*
Ed
 1e-07 1 1 0
1  2 0 0 8.19968788767366
0

0101000
+23 0 -21 0 *
Ve
1e-07
12.9859221925103 -2.35731708590155 8.19968788767366
0 0

0101101
*
Ed
 1e-07 1 1 0
1  3 0 20.2044728445512 39.4879302957184
0

0101000
+19 0 -21 0 *
Ed
 1e-07 1 1 0
1  4 0 0 8.19968788767366
0

0101000
+24 0 -19 0 *
Wi

0101100
+22 0 +20 0 -18 0 -17 0 *
Fa
0  1e-07 1 0

0101000
+16 0 *
Ve
1e-07
-6.69974329677283 -6.90652549729051 0
0 0

0101101
*
Ed
 1e-07 1 1 0
1  5 0 39.4879302957184 52.2428893599457
0

0101000
+23 0 -14 0 *
Ed
 1e-07 1 1 0
1  6 0 0 20.2044728445512
0

0101000
+14 0 -24 0 *
Wi

0101100
-13 0 -22 0 -12 0 *
Ve
1e-07
-2.48138640621216 -4.5905648514925 0
0 0

0101101
*
Ve
1e-07
6.53431753635869 -1.44747540362376 0
0 0

0101101
*
Ed
 1e-07 1 1 0
1  7 0 0 9.54787562012574
0

0101000
+10 0 -9 0 *
Ve
1e-07
-2.39867352600509 1.69561404424497 0
0 0

0101101
*
Ed
 1e-07 1 1 0
1  8 0 9.54787562012574 19.0176876878267
0

0101000
+9 0 -7 0 *
Ed
 1e-07 1 1 0
1  9 0 19.0176876878267 25.304410723699
0

0101000
+7 0 -10 0 *
Wi

0101100
+8 0 +6 0 +5 0 *
Fa
0  1e-07 2 0

0101000
+11 0 +4 0 *
Sh

0101000
+15 0 +3 0 *
Co

1100000
+2 0 *

+1 0 