DBRep_DrawableShape

CASCADE Topology V1, (c) Matra-Datavision
Locations 0
Curve2ds 0
Curves 6
7 0 0  1 2 2  8.6479380961293693 -2.1788380078068701 0  -3.1999306574106998 6.9808588436694796 0 
 14.662932132069299 2 29.6386471537989 2
7 0 0  1 2 2  -3.1999306574106998 6.9808588436694796 0  -3.1999306574106998 6.9808588436694796 4.6089778849609999 
 0 2 4.6089778849609999 2
7 0 0  1 2 2  8.6479380961293693 -2.1788380078068701 4.6089778849609999  -3.1999306574106998 6.9808588436694796 4.6089778849609999 
 14.662932132069299 2 29.6386471537989 2
7 0 0  1 2 2  8.6479380961293693 -2.1788380078068701 0  8.6479380961293693 -2.1788380078068701 4.6089778849609999 
 0 2 4.6089778849609999 2
7 0 0  1 2 2  -3.1999306574106998 6.9808588436694796 0  -5.8881025594744196 -4.1037018389142199 0 
 29.6386471537989 2 41.044512035557098 2
7 0 0  1 2 2  -5.8881025594744196 -4.1037018389142199 0  8.6479380961293693 -2.1788380078068701 0 
 0 2 14.662932132069299 2
Polygon3D 0
PolygonOnTriangulations 0
Surfaces 2
1 8.6479380961293693 -2.1788380078068701 0 0.61163669568937107 0.79113876942429506 0 0.79113876942429506 -0.61163669568937107 0 0 0 -1 
1 10.925089962874299 -2.2939737617007498 0 0 0 -1 -1 0 -0 0 1 0 
Triangulations 0

TShapes 17
Ve
1e-07
8.64793809612937 -2.17883800780687 0
0 0

0101101
*
Ve
1e-07
-3.1999306574107 6.98085884366948 0
0 0

0101101
*
Ed
 1e-07 1 1 0
1  1 0 14.6629321320693 29.6386471537989
4 C0 1 0 2 0
0

0101000
+17 0 -16 0 *
Ve
1e-07
-3.1999306574107 6.98085884366948 4.608977884961
0 0

0101101
*
Ed
 1e-07 1 1 0
1  2 0 0 4.608977884961
0

0101000
+16 0 -14 0 *
Ve
1e-07
8.64793809612937 -2.17883800780687 4.608977884961
0 0

0101101
*
Ed
 1e-07 1 1 0
1  3 0 14.6629321320693 29.6386471537989
0

0101000
+12 0 -14 0 *
Ed
 1e-07 1 1 0
1  4 0 0 4.608977884961
0

0101000
+17 0 -12 0 *
Wi

0101100
+15 0 +13 0 -11 0 -10 0 *
Fa
0  1e-07 1 0

0101000
+9 0 *
Ve
1e-07
-5.88810255947442 -4.10370183891422 0
0 0

0101101
*
Ed
 1e-07 1 1 0
1  5 0 29.6386471537989 41.0445120355571
0

0101000
+16 0 -7 0 *
Ed
 1e-07 1 1 0
1  6 0 0 14.6629321320693
0

0101000
+7 0 -17 0 *
Wi

0101100
-6 0 -15 0 -5 0 *
Fa
0  1e-07 2 0

0101000
+4 0 *
Sh

0101000
+8 0 +3 0 *
Co

1100000
+2 0 *

+1 0 