DBRep_DrawableShape

CASCADE Topology V1, (c) Matra-Datavision
Locations 0
Curve2ds 4
1 3.7587402128840747e-15 4.445406364149733e-16 1 -1.3172272925634319e-18 
1 100 3.1281790715863011e-16 0 1 
1 0 100 -1 0 
1 3.7587402128840747e-15 0 3.7587402128840744e-17 -1 
Curves 4
7 0 0  2 4 3  0 0 0  250 0 0  750 0 -100  1000 0 0 
 0 3 50 1 100 3
7 0 0  2 4 3  1000 0 0  1000 250 0  1000 750 -100  1000 1000 0 
 0 3 50 1 100 3
7 0 0  2 4 3  1000 1000 0  750 1000 100  250 1000 0  0 1000 0 
 -100 3 -50 1 0 3
7 0 0  2 4 3  0 1000 0  0 750 0  0 250 -300  0 0 0 
 -100 3 -50 1 0 3
Polygon3D 0
PolygonOnTriangulations 0
Surfaces 1
9 0 0 0 0 2 2 4 4 3 3 0 0 0  0 250 -300  0 750 0  0 1000 0  
250 0 0  250 250 0  250 750 400  250 1000 0  
750 0 -100  750 250 -500  750 750 0  750 1000 100  
1000 0 0  1000 250 0  1000 750 -100  1000 1000 0  

0 3
50 1
100 3

0 3
50 1
100 3

Triangulations 0

TShapes 12
Ve
1e-07
0 0 0
0 0

0101101
*
Ve
1e-07
1000 0 0
0 0

0101101
*
Ed
 1e-07 1 1 0
1  1 0 0 100
2  1 1 0 0 100
0

0101000
+12 0 -11 0 *
Ve
1e-07
1000 1000 0
0 0

0101101
*
Ed
 1e-07 1 1 0
1  2 0 0 100
2  2 1 0 0 100
0

0101000
+11 0 -9 0 *
Ve
1e-07
0 1000 0
0 0

0101101
*
Ed
 1e-07 1 1 0
1  3 0 -100 0
2  3 1 0 -100 0
0

0101000
+9 0 -7 0 *
Ed
 1e-07 1 1 0
1  4 0 -100 0
2  4 1 0 -100 0
0

0101000
+7 0 -12 0 *
Wi

0101100
+10 0 +8 0 +6 0 +5 0 *
Fa
0  1e-07 1 0

0101000
+4 0 *
Sh

0101000
+3 0 *
Co

1100000
+2 0 *

+1 0 