DBRep_DrawableShape

CASCADE Topology V1, (c) Matra-Datavision
Locations 1
1
              1               0               0               0 
              0               1               0               0 
              0               0               1               0 
Curve2ds 5
1 0 3.1415926535897931 1 0 
1 0 9.4247779607693793 1 0 
1 6.2831853071795862 0 0 1 
1 0 0 0 1 
2 -3.9032536978754844e-16 0 0 1 -1 0 2
Curves 2
2 0 0 -2.4492935982947064e-16 0 0 1 1 0 -0 -0 1 0 8
2 10 0 0 -0 1 0 1 0 0 0 0 -1 2
Polygon3D 0
PolygonOnTriangulations 0
Surfaces 2
5 0 0 0 -0 -0 -1 1 0 -0 -0 1 0 10 2
1 10 0 3.9032536978754844e-16 0 1 0 0 -0 1 1 0 -0 
Triangulations 0

TShapes 8
Ve
1e-07
8 0 -2.44929359829471e-16
0 0

0101101
*
Ed
 1e-07 1 1 0
1  1 0 0 6.28318530717959
3  1 2CN 1 0 0 6.28318530717959
0

0101000
+8 0 -8 0 *
Ed
 1e-07 1 1 0
1  2 0 3.14159265358979 9.42477796076938
3  3 4CN 1 0 3.14159265358979 9.42477796076938
2  5 2 0 3.14159265358979 9.42477796076938
0

0101000
+8 0 -8 0 *
Wi

0101100
+7 0 -7 0 -6 0 +6 0 *
Fa
0  1e-07 1 0

0111000
+5 0 *
Sh

0101100
+4 0 *
So

0100000
-3 0 *
Co

1100000
+2 1 *

+1 0 