DBRep_DrawableShape

CASCADE Topology V1, (c) Matra-Datavision
Locations 10
1
              1               0               0               0 
              0               1               0               0 
              0               0               1               0 
1
              1               0               0               0 
              0               1               0               0 
              0               0               1               0 
1
              1               0               0               0 
              0               1               0               0 
              0               0               1               0 
1
              1               0               0               0 
              0               1               0               0 
              0               0               1               0 
2  2 1 3 1 4 -1 0
1
              1               0               0               0 
              0               1               0               0 
              0               0               1              10 
2  2 1 3 1 4 -1 6 1 0
2  4 -1 0
2  2 1 3 1 0
2  4 -1 6 1 0
Curve2ds 0
Curves 6
1 -19.819336 -9.5179800000000014 0 0 0 1 
1 8.3734409999999997 21.927800999999995 0 0 0 1 
1 -19.819336 -9.5179800000000014 0 0.66754511850183307 0.74456934852596068 0 
1 40.180660000000003 -17.349306000000006 0 0 0 1 
1 8.3734409999999997 21.927800999999995 0 0.62933526704880727 -0.77713391487478289 0 
1 40.180660000000003 -17.349306000000002 0 -0.99158930191423611 0.12942432665166856 0 
Polygon3D 0
PolygonOnTriangulations 0
Surfaces 4
1 -19.819336 -9.5179800000000014 0 -0.74456934852596079 0.66754511850183318 0 0.66754511850183318 0.74456934852596079 0 0 0 -1 
1 8.3734409999999997 21.927800999999995 0 0.77713391487478301 0.62933526704880738 -0 0.62933526704880738 -0.77713391487478301 0 0 -0 -1 
1 40.180660000000003 -17.349306000000002 0 -0.12942432665166859 -0.99158930191423622 0 -0.99158930191423622 0.12942432665166859 0 -0 0 -1 
1 10.446704524970215 -2.8385277861068499 0 0 0 1 1 0 -0 -0 1 0 
Triangulations 0

TShapes 20
Ve
1e-07
-19.819336 -9.51798 0
0 0

0101101
*
Ed
 1e-07 1 1 0
1  1 0 0 10
0

0101000
+20 5 -20 7 *
Ve
1.00000001776357e-07
8.373441 21.927801 0
0 0

0101101
*
Ed
 1.00000001776357e-07 1 1 0
1  2 0 0 10
0

0101000
+18 5 -18 7 *
Ed
 1e-07 1 1 0
1  3 0 0 42.2335153364208
0

0101000
+20 0 -18 0 *
Wi

0101100
+19 0 -17 0 -16 5 +16 7 *
Fa
0  1e-07 1 0

0101000
+15 0 *
Ve
1.00000001776357e-07
40.18066 -17.349306 0
0 0

0101101
*
Ed
 1.00000001776357e-07 1 1 0
1  4 0 0 10
0

0101000
+13 5 -13 7 *
Ed
 1e-07 1 1 0
1  5 0 0 50.5409765913106
0

0101000
+18 0 -13 0 *
Wi

0101100
+17 0 -12 0 -11 5 +11 7 *
Fa
0  1e-07 2 0

0101000
+10 0 *
Ed
 1e-07 1 1 0
1  6 0 0 60.5089182428367
0

0101000
+13 0 -20 0 *
Wi

0101100
+12 0 -19 0 -8 5 +8 7 *
Fa
0  1e-07 3 0

0101000
+7 0 *
Wi

0101100
+16 0 +11 0 +8 0 *
Fa
0  1e-07 4 0

0101000
-5 9 *
Sh

0101100
-14 0 -9 0 -6 0 +4 8 -4 10 *
So

0100000
-3 0 *
Co

1100000
+2 1 *

+1 0 